<?xml version="1.0" encoding="utf-8"?>
<!-- Generator: Adobe Illustrator 21.0.0, SVG Export Plug-In . SVG Version: 6.00 Build 0)  -->
<svg version="1.1" id="Layer_1" xmlns="http://www.w3.org/2000/svg" xmlns:xlink="http://www.w3.org/1999/xlink" x="0px" y="0px"
	 viewBox="0 0 610.2149 439.14325" enable-background="new 0 0 610.2149 439.14325" xml:space="preserve">
<g>
	<g>
		<path fill="#FFFFFF" d="M267.41248,190.50725l-0.92068,1.47285v-19.42427H249.6451v84.69398h16.84669v-44.28018
			c0-7.05798,1.9794-13.16457,5.93781-18.31973c3.95859-5.15535,8.63812-7.73293,14.03903-7.73293
			c4.9711,0,10.48349,3.30028,16.59735,8.50836l8.04755-15.17557c-7.2012-6.0108-13.07614-9.35104-19.39752-9.35104
			C283.61478,170.89873,275.51352,177.43491,267.41248,190.50725z"/>
		<path fill="#FFFFFF" d="M349.15909,170.89873c-11.66077,0-21.14285,4.03517-28.44617,12.10567
			c-7.30334,8.07051-10.95493,18.5498-10.95493,31.4381c0,8.59213,1.73367,16.15628,5.20117,22.69246
			c3.46771,6.53618,8.08597,11.73753,13.85498,15.60391c5.76901,3.86655,13.31772,5.79974,22.64645,5.79974
			c6.81226,0,12.75006-0.73642,17.81339-2.20944c5.06314-1.47287,10.17245-3.92787,15.32764-7.36464v-16.38655
			c-9.32855,6.87375-19.51633,10.3107-30.56345,10.3107c-7.91699,0-14.3764-2.39352-19.37827-7.18056
			c-5.00201-4.78705-7.71765-11.2312-8.14725-19.33244h59.56198v-2.11725c0-13.19511-3.34476-23.72043-10.03442-31.57614
			C369.35056,174.82658,360.39029,170.89873,349.15909,170.89873z M326.88077,206.34125
			c1.16623-6.6895,3.66705-11.84485,7.50287-15.46587c3.83582-3.62085,8.76093-5.43144,14.77545-5.43144
			c6.01456,0,10.80161,1.81059,14.36115,5.43144c3.55957,3.62102,5.55423,8.77637,5.98383,15.46587H326.88077z"/>
		<path fill="#FFFFFF" d="M430.5361,208.47395l-5.98904-3.40604c-4.5415-2.51378-7.71765-4.66176-9.52286-6.44414
			c-1.80539-1.77988-2.71078-3.65428-2.71078-5.62325c0-2.27075,0.99744-4.09915,2.99191-5.48267
			c1.99466-1.38083,4.61844-2.07393,7.87115-2.07393c6.32138,0,14.45319,3.00735,24.39557,9.02173v-16.57042
			c-8.7149-4.66446-17.215-6.99652-25.50031-6.99652c-7.97845,0-14.49936,2.05597-19.5625,6.16788
			c-5.06332,4.11209-7.59488,9.42076-7.59488,15.92621c0,5.03258,1.67236,9.68158,5.0173,13.94682
			c3.34476,4.26541,10.41782,9.40549,21.21942,15.41985c5.40088,3.06866,8.91443,5.41617,10.54077,7.04253
			c1.62637,1.62636,2.43954,3.66704,2.43954,6.12186c0,2.39352-1.25806,4.44966-3.77435,6.16805
			c-2.5163,1.7184-5.52365,2.57759-9.02173,2.57759c-3.37549,0-7.5336-1.02798-12.47397-3.08394
			c-4.94055-2.05595-9.77362-4.74103-14.49936-8.05522v18.04364c5.95325,2.88441,10.89362,4.8638,14.82147,5.93781
			c3.92786,1.07397,8.40808,1.6109,13.44064,1.6109c8.53067,0,15.5119-2.22476,20.94333-6.66902
			c5.43146-4.44966,8.14728-10.14192,8.14728-17.07695C451.71472,225.28488,444.6517,216.45244,430.5361,208.47395z"/>
		<g>
			<rect x="461.21548" y="172.5558" fill="#FFFFFF" width="16.75466" height="84.69389"/>
			<path fill="#FFFFFF" d="M469.50073,163.71805c2.76193,0,5.12466-0.98184,7.08853-2.94591
				c1.96405-1.96387,2.94592-4.29587,2.94592-6.99635c0-2.76176-0.98187-5.09393-2.94592-6.99637
				c-1.96387-1.90262-4.3266-2.85393-7.08853-2.85393c-2.57761,0-4.84833,0.9973-6.81219,2.9919
				c-1.9639,1.99478-2.94592,4.28079-2.94592,6.8584c0,2.63904,0.98203,4.95576,2.94592,6.95036
				C464.6524,162.72093,466.92313,163.71805,469.50073,163.71805z"/>
		</g>
		<path fill="#FFFFFF" d="M525.23389,208.47395l-5.98883-3.40604c-4.5415-2.51378-7.71765-4.66176-9.52304-6.44414
			c-1.80539-1.77988-2.7106-3.65428-2.7106-5.62325c0-2.27075,0.99744-4.09915,2.99191-5.48267
			c1.99466-1.38083,4.61826-2.07393,7.87119-2.07393c6.32117,0,14.45312,3.00735,24.39539,9.02173v-16.57042
			c-8.71472-4.66446-17.21484-6.99652-25.50012-6.99652c-7.97849,0-14.49939,2.05597-19.56253,6.16788
			c-5.06332,4.11209-7.59488,9.42076-7.59488,15.92621c0,5.03258,1.67236,9.68158,5.01712,13.94682
			c3.34494,4.26541,10.418,9.40549,21.21964,15.41985c5.40088,3.06866,8.91437,5.41617,10.54077,7.04253
			c1.62634,1.62636,2.43951,3.66704,2.43951,6.12186c0,2.39352-1.25824,4.44966-3.77435,6.16805
			c-2.5163,1.7184-5.52362,2.57759-9.02191,2.57759c-3.37549,0-7.53342-1.02798-12.47397-3.08394
			c-4.94037-2.05595-9.77341-4.74103-14.49918-8.05522v18.04364c5.95306,2.88441,10.89362,4.8638,14.82147,5.93781
			c3.92786,1.07397,8.40808,1.6109,13.44067,1.6109c8.53064,0,15.51184-2.22476,20.9433-6.66902
			c5.43146-4.44966,8.14709-10.14192,8.14709-17.07695C546.41254,225.28488,539.34967,216.45244,525.23389,208.47395z"/>
		<path fill="#FFFFFF" d="M591.15875,243.62511c-8.03973,0-12.05963-4.83827-12.05963-14.51968V187.6534h31.11578v-15.09756
			h-31.11578v-35.62677c0,0-2.27045,14.4162-12.40558,30.28938c-10.13507,15.873-19.07855,20.43495-19.07855,20.43495h14.72943
			v37.55995c0,7.67163,0.35284,12.87282,1.05853,15.60391c0.70587,2.73109,1.58038,4.94055,2.62378,6.6282
			c1.04327,1.68784,2.36279,3.20671,3.95844,4.55698c5.09406,4.48022,11.47675,6.72025,19.14838,6.72025
			c7.61017,0,14.63721-1.81042,21.08136-5.43146V237.6413C603.52521,241.63045,597.17328,243.62511,591.15875,243.62511z"/>
	</g>
	<g>
		<g>
			<path fill="#0096E4" d="M229.72688,257.24982c0,0-171.75525-141.8555-229.72688-257.24982l83.89815,181.28841l62.15384,53.39917
				L229.72688,257.24982z"/>
			<path fill="#FF9B00" d="M242.82086,439.14325L158.9227,257.85486l-62.15383-53.39917l-83.6749-22.56209
				C13.09397,181.8936,184.84921,323.74893,242.82086,439.14325z"/>
		</g>
		<g>
			<path fill="#FFFFFF" d="M143.61606,238.64951l59.78897,16.12155c0,0-122.72578-101.36118-164.14871-183.81491l59.94849,129.5376
				l-59.78898-16.12154c0,0,122.72578,101.36116,164.14871,183.81493L143.61606,238.64951z"/>
		</g>
	</g>
	<g>
		<path fill="#FFFFFF" d="M267.314,275.99512c6.33514,0,9.50189,3.23376,9.50189,9.70132v16.72803
			c0,6.46594-3.16675,9.69971-9.50189,9.69971h-11.92722v-3.71115h11.53076c4.09128,0,6.13733-2.07956,6.13733-6.23706V285.9433
			c0-4.15747-2.04605-6.23538-6.13733-6.23538h-13.5106v32.41626h-3.76184v-36.12906H267.314z"/>
		<path fill="#FFFFFF" d="M312.25443,275.99512v3.7128h-18.70786v12.27298h18.41031v3.56403h-18.41031v12.8681h18.90567v3.71115
			H289.7847v-36.12906H312.25443z"/>
		<path fill="#FFFFFF" d="M349.6221,275.99512v3.7128h-16.03485c-2.97055,0-4.45502,1.53351-4.45502,4.60217v3.46429
			c0,2.7384,1.33731,4.10843,4.0087,4.10843h10.64142c4.6839,0,7.02667,2.39182,7.02667,7.17545v5.14661
			c0,5.28064-2.58963,7.91931-7.76892,7.91931h-17.37216v-3.71115h16.97653c3.00162,0,4.50244-1.53516,4.50244-4.60382v-4.4534
			c0-2.7384-1.33569-4.10843-4.00873-4.10843h-10.69043c-4.68555,0-7.02667-2.39182-7.02667-7.17545v-4.1575
			c0-5.27899,2.58963-7.91931,7.76892-7.91931H349.6221z"/>
		<path fill="#FFFFFF" d="M367.5397,275.99512v36.12906h-3.76184v-36.12906H367.5397z"/>
		<path fill="#FFFFFF" d="M406.14499,275.99512v3.7128h-16.8768c-3.33188,0-4.99783,1.69861-4.99783,5.09753v18.51004
			c0,3.39725,1.66595,5.09753,4.99783,5.09753h9.70132c3.00165,0,4.50409-1.50244,4.50409-4.50409v-9.00815h-10.24576v-3.31552
			h13.75909v13.21469c0,4.88336-2.4245,7.32422-7.27518,7.32422h-11.13513c-5.37875,0-8.06812-2.7384-8.06812-8.21524v-19.69858
			c0-5.47519,2.68936-8.21524,8.06812-8.21524H406.14499z"/>
		<path fill="#FFFFFF" d="M424.06421,275.99512l19.84573,29.44733v-29.44733h3.66211v36.12906h-3.31552l-20.63864-30.28931v30.28931
			h-3.66211v-36.12906H424.06421z"/>
	</g>
</g>
</svg>
