<?xml version="1.0" standalone="no"?>
<!DOCTYPE svg PUBLIC "-//W3C//DTD SVG 20010904//EN"
 "http://www.w3.org/TR/2001/REC-SVG-20010904/DTD/svg10.dtd">
<svg version="1.0" xmlns="http://www.w3.org/2000/svg"
 width="512.000000pt" height="512.000000pt" viewBox="0 0 512.000000 512.000000"
 preserveAspectRatio="xMidYMid meet">
<metadata>
Created by potrace 1.11, written by Peter Selinger 2001-2013
</metadata>
<g transform="translate(0.000000,512.000000) scale(0.100000,-0.100000)"
fill="#000000" stroke="none">
<path d="M353 3994 c3 -3 53 -32 112 -65 359 -200 768 -535 985 -808 19 -24
40 -48 45 -55 32 -36 145 -197 178 -255 11 -20 47 -87 79 -149 l57 -114 -64
-124 c-228 -440 -611 -834 -1126 -1161 -82 -52 -119 -74 -239 -140 -24 -14
-23 -14 15 -9 88 11 341 74 490 122 397 129 769 337 1017 570 28 27 48 39 51
31 8 -22 -9 -229 -28 -342 -15 -86 -61 -252 -100 -360 -12 -33 32 39 130 215
144 258 230 411 260 465 52 94 213 380 249 443 20 35 36 71 36 80 0 10 -15 61
-34 116 l-33 98 24 66 c54 148 55 139 -40 308 -46 82 -96 170 -110 197 -15 26
-39 68 -54 95 -14 26 -67 119 -116 207 -50 88 -99 176 -109 195 -11 19 -25 44
-31 55 -7 11 -48 84 -91 162 -44 79 -81 141 -83 139 -2 -2 5 -26 16 -54 24
-60 65 -213 80 -297 6 -33 13 -71 16 -84 10 -53 26 -291 19 -291 -1 0 -18 14
-36 31 -289 269 -687 484 -1138 614 -112 33 -206 56 -280 71 -14 2 -37 7 -52
10 -15 3 -30 5 -33 5 -2 0 -19 4 -36 9 -18 5 -29 7 -26 4z"/>
<path d="M4719 3986 c-2 -2 -17 -6 -34 -9 -91 -16 -203 -44 -408 -102 -72 -20
-260 -92 -368 -140 -251 -113 -500 -273 -674 -434 -63 -59 -63 -59 -59 17 4
79 14 189 19 217 3 11 7 38 10 60 7 52 59 254 84 330 11 33 16 53 10 45 -8
-13 -506 -900 -542 -967 -7 -12 -38 -68 -70 -125 -64 -115 -64 -107 -20 -243
l29 -90 -18 -50 c-10 -27 -26 -76 -35 -108 -15 -56 -15 -59 5 -95 35 -64 62
-112 177 -317 62 -110 123 -220 137 -245 31 -56 158 -282 187 -332 11 -21 29
-53 39 -70 93 -169 116 -207 118 -205 2 1 -7 32 -20 67 -23 62 -69 240 -81
308 -17 102 -26 193 -30 282 -2 75 5 80 50 30 11 -13 52 -48 90 -80 203 -166
457 -313 725 -420 205 -82 550 -178 700 -196 33 -4 31 -2 -25 29 -128 70 -164
92 -279 169 -103 69 -271 190 -286 207 -3 3 -30 26 -60 51 -289 235 -554 556
-707 859 l-62 123 63 123 c210 408 565 786 1026 1095 52 35 107 72 123 82 15
11 76 46 135 78 76 43 99 60 81 60 -14 0 -28 -2 -30 -4z"/>
</g>
</svg>
